<mxfile host="app.diagrams.net" modified="2023-08-01T17:06:41.481Z" agent="Mozilla/5.0 (Windows NT 10.0; Win64; x64) AppleWebKit/537.36 (KHTML, like Gecko) Chrome/115.0.0.0 Safari/537.36" etag="Ygghe1NDj1ue-zBrsls_" version="21.6.6" type="github">
  <diagram name="第 1 页" id="3oO1CI6UJbwBDjbHIaCN">
    <mxGraphModel dx="2586" dy="1430" grid="1" gridSize="10" guides="1" tooltips="1" connect="1" arrows="1" fold="1" page="1" pageScale="1" pageWidth="827" pageHeight="1169" background="#000000" math="0" shadow="0">
      <root>
        <mxCell id="0" />
        <mxCell id="1" parent="0" />
        <mxCell id="4a1D77Ex5ZYP_HulUG9D-1" value="" style="shape=image;verticalLabelPosition=bottom;labelBackgroundColor=default;verticalAlign=top;aspect=fixed;imageAspect=0;image=data:image/png,iVBORw0KGgoAAAANSUhEUgAAAsIAAAHgCAYAAACvngt5AAAAAXNSR0IArs4c6QAAAARnQU1BAACxjwv8YQUAAAAJcEhZcwAAEnQAABJ0Ad5mH3gAAHkMSURBVHhe7d0JfFTnfe//HxIIhMQmhBBCiNXsmB1jG2yD9w0nBseOE9tp6ySNm9z6po3/ed30tm5eSZvrtrm+TZqtbhNn8b4Sr9jGYIONIWYx+45Zxb6JTSDxf77PnCONRjPSaMPY5/P2a8zM0ZkzZ5s53/Oc53lOq3Hjp5w1AAAAIGIygn8BAACASCEIAwAAIJIIwgAAAIgkgjAAAAAiiSAMAACASCIIAwAAIJIIwgAAAIgkgjAAAAAiiSAMAACASCIIAwAAIJIIwgAAAIgkgjAAAAAiiSAMAACASCIIAwAAIJIIwgAAAIgkgjAAAAAiiSAMAACASCIIAwAAIJIIwgAAAIgkgjAAAAAiiSAMAACASCIIAwAAIJIIwgAAAIgkgjAAAAAiiSAMAACASCIIAwAAIJIIwgAAAIgkgjAAAAAiiSAMAACASCIIAwAAIJIIwgAAAIgkgjAAAAAiiSAMAACASCIIAwAAIJIIwgAAAIgkgjAAAAAiiSAMAACASCIIAwAAIJIIwgAAAIgkgjAAAAAiiSAMAACASCIIAwAAIJIIwgAAAIgkgjAAAAAiiSAMAACASCIIAwAAIJIIwgAAAIgkgjAAAAAiiSAMAACASCIIAwAAIJIIwgAAAIgkgjAAAAAiiSAMAACASCIIAwAAIJIIwgAAAIgkgjAAAAAiiSAMAACASCIIAwAAIJIIwgAAAIgkgjAAAAAiiSAMAACASCIIAwAAIJIIwgAAAIgkgjAAAAAiiSAMAACASCIIAwAAIJIIwgAAAIgkgjAAAAAiiSAMAACASCIIAwAAIJIIwgAAAIgkgjAAAAAiiSAMAACASCIIAwAAIJIIwgAAAIgkgjAAfAI6duxkPXsWW2FhD/8cAHDutRo3fsrZ4DkAoIX06d3XBlww0Ip79vLhN5nS3bts9aqVtnrNSjty5EgwFADQUgjCANCCxoweZ5dcMtlyc3ODIen5aPlSmzt3th07diwYAgBobgRhAGgBubkd7HO3TLfi4l7BkIY7c+aMvT3nTfvww0XBEABAc8os6tn3weA5AKAZdO9eaHd9+c+sa9f8YEhN27Ztte3bt9qmTRtsx84d1jqztbVrl20ZGTWbbeh1/34DrJX7d+vWLcFQAEBzoUQYAJpRfn43u/uuP7esrKxgSMz+/fvsgw/et7XrVtupU6eCoTX17dvPRo8eZwMvGBQMqbZw0QI7efKk9S7p44JxKysvL7fjx4/5qhM7d2y39RvWBWMCANJFEAaAZpKTk2P33H2vdezYMRgSM/edt+399+cFr+rXq1eJXXP19datW0EwpH4KxgrZf/rTQtu9uzQYCgCoC92nAUAzuerKa2uF4GeefbJBIVhUYlxRWRG8So9KoEcMH2l/9pWv2owZd/g6ygCAulEiDADNoHfvPvbFO+4KXsUoBG9oQJUFlShfcfmVNmLEyGBI46nahD5/584dwRAAQCKCMAA0g9tm3GH9+18QvDJbu26NPf/808Gr+k0YP9EuvfQya9u2bTCkJgXqLVs22759e63ybKW1bt3a8rt2s675+daruMTy8roGY1ZTrxOPPf5bwjAApEAQBoAmUjWEb/7V/cGrWAD91X/+R1o3xRgwYKBdddW11rlT52BItZOnTtqC9+fb0mVL7OTJE8HQ5IYPv9BGjRxTq7s2VbN49Lf/ZQcO7A+GAABCBGEAaIRWrVr5Rm1DBg+zQYMGW/v2OcFfzJYuXWyvvf5y8Cq5Ll3y7Nprb/B3nEtm2UdLbM6ct+zEiboDcKILLhhk027+vLVp0yYYYrZnz277zaOPWGVlZTAEACAEYQBoIJXiXjn1ah9mk3nssd/a1m0fB69qate2nV066TIbP+6iYEhNpaW77PVZr9iuXTuDIQ3Xo0eR3X77l/xnhd55d4699967wSsAgBCEASBNHTp0sJtu/JxvGFeXf/23f/bVIxKNHj3WLps8xbKzs4Mh1VT1Yc7c2b40uTkMHjzU39kupPn56U//r69uAQCIofs0AEhDQbfuvo/g+kLwocOHkoZgNaa79pobkobgxUv+ZL/45U/rDcGqiqEwno41a1bZ9u3bglfmG9eNckEcAFCNIAwA9ejZs9i+/OWvWG5ubjAkZvXqlb4hWrzy8tp3jevQoWONHiVCCqr//etf2axZr/q7xqXSp08/++q937Av3XmP/dV999vkyVfUqAOcyrx5c4NnMePGjg+eAQCEIAwAdVA921s/f1uNWyZXVFTYizOf8w/V6a1PYmg9dqzMXnrpRfv9H37jG7Kl0rlzF5sx/Xa74/YvWdeu+cFQs0svmWxf++pf2bChI4IhyW35eLMdPnwoeBXr3SJZN2sAEFUEYQCow403TrOcnOqSYHVHpr55VRosZ88mNLOop9XFpk0b7Je/+g9bsfKjYEhtCs5Tplxlf/n1b/qGecmoisTNN3/O7vryn1lhYY9gaG3r1q0NnsWoIR0AIIYgDAAp9Os3wHdHFu/Jp/5gO3ZsD16lJz4sl+4utfLy8uBVbSMvHO0C8LfsogkXB0PM9u/fZzP/+HzSnihUbeMr99xrN9xwc40u3EK7Smv2PtG9e2HwDABAEAaAFK64fGrwLEaN2hLv0qb+hGtIeCnx4yT5s1dU1NMH2uuvv8nfalkUmN96a5Y98l+/sFWrVvhu2Z5/4RnfIC/RhSNG+RLkiRddYhkZ1T/tRxNu6qFGcwCAGIIwACSh6gYFBd2DVzHz578TPKuWTtWI+CCc+Gc1wLvpxlvs7rv+vEYVB1W9UBWKRX/6oMZnrF272n7xi5/Y3Lmz7fTp08HQGNVjvuKKK+1rX/srGzRwsB92pqJmDxa15hcAIowgDABJJPbyoDu9HTt2LHjVPC6+eJKvBqHbI8dTie8HC9/3jepSeX/BfPvFL39iHy1fGgyppts1f/7zt/lGdiUlvYOhMWdO1+7aDQCiiiAMAEkkBsjVq1cFz5pO9Y6/8Zffsssvm1JVVeH48eqQrSCrahI33/Q53/VaKgrmr7zyR/v1b/6zRp/BIXW7NuWKq4JXMXv37gmeAQAIwgCQRNeEbsZ27KgdNBtj3NgJNv3WL1gnF3ZF1Rt0++Of/fzf7ee/+ElVbxQybNgI+6v7/touc4G5rn6Dd+8u9V2xvfDis3bkyOFgaHKlu+vv7g0AooIgDABJqM/d0NGjR2rVx22s+P6Ily5b7MLvv9t7773r70anPn/VN/FvHn2kRgnvJRdPsm/85f/wPUrURXeTU6B+5523k97dTvbt2xs8AwAQhAGgHqlCZWOpL+H/fOTn9tprL9vx48eDodV0kw6V8D777JN28OABP6x9+/a+R4m/+POv13ub5/fen+frD69dtyYYUk3VMQAAMQRhAKhHRmZm8KzpPvxwkT319OO+b+D6rN+wzvccceDA/mCIWbduBfbFO+7yd5yLv9tcorKyMnv++adt+YplwZAYNdBT/8gAAIIwACQVlsRKp46dUtbRTacf4Xinyk8Fz9J3+kztahm645xKh6+5+npr1y47GFqbGtMpUMebOqVmAzoAiCqCMAAkoQZo8UoSepEINfQWy40RfsahQwftj398wY4EN8nQjTPGjBnne6CYMH6iH5ZI71UVi/A9kp/frVb3cAAQRQRhAEgisTuyEcNHBs9qO3HiRPDMrEuXPN8zREtZuWq5/eo//8PmzJ1ddavmtm3b2tSpV9tfukCcl9DbRejdd+cEz2LGjB4bPAOA6CIIA0ASa9auDp7FDB481Dp37hK8qkm3QQ4b1KkKxVVXXWtf++p9vr/gZpFQyqzPWhDeUOOj6htqqP/hiy66OHhVk+oKnzhR3TBPJcLt28du5QwAUUUQBoAkysqO2pYtm4JXMTfeOC14VtOKlR/5ULpixUfBEPMls+ov+M4v3u0buDVFrXrIAfU4MS/hts8d4rp9S7Ru3drgWUyq6h4AEBUEYQBIQdUP4vUqLrFLL5kcvKpJvTS89PKL9t+//pVt3fZxMDQWNj93y/Tg1Sfr461bgmcxhYU9gmcAEE0EYQBIQf35Ll9es/uxyZOv8NUkUtmzZ7c99thvfddlatyWqG1W2+BZ+uq6q1xivYnEtnvx4nvCEPWGAQBRRhAGgDq8PuuVWj1IqIT3yiuvscw6+hfWzSx+9Z8/8/WHT548GQw1Gzt2vN02446UjdriDRw42Nc1rnvcmtUmUtSi8E6dqtl1W3P2jwwAn0YEYQCogxqmzZs3N3hVbfy4i+yr937DBrmwmkplZaUt+tMHvv6w/g2poZoC7nXX3ejvGJdIVRa+/KWv2K2fvy2NwJx+ibC6W4tXWVERPAOAaCIIA0A9CroXBs9qUi8Sn3dh9YtfvKvOBnEqEVbJsO4SF39zi1Ejx9g3/vJ/2KWXXmatW7f2vT6otPkr99xrxcW9grHMTp+ufUONxsjrkhc8izmYpOoGAEQJQRgA6tGzqDh4llzvkj7+Lm/XXXujZWfXLuENqY6ubm6hOsR79u72w1T/d/Kky30gVj/A8fWPt2zZbP/5yM9t/4H6b8ecjl69avYSsX9f80wXAD6tCMIAUA/diS3eU08/nrQh3KhRY+wvv/7NlHd5C6lXif/+71/Zq6++FAwxy8mp7tNX0372uafsiSd/b/v3u7BaR3WH2lUhUo88cFDNahybt2wMngFANBGEAaAe8f34Hj9+zDZt2mC/+OVPbe7c2bWqLYR3efv61/6qztsYq+rD+PEXBa9iNC1NU9Nevz6uz986GsDVbhyXfGTd3CO+l4idO3f4fogBIMoIwgDQINVB8/0F8+3nv6h5I42QbrWs3iHuuOPL1rVrfjDULDs72268YZpvDBdf0qw7v2lammaiVDfUiKn5t2SjqneLK104j7ds2ZLgGQBEF0EYAOpRURG7fbIk9vKgEmLdSOM3jz7iS1kT9end1/cucc0119uYMePs61/7po0YMTL4a6xkVu99+eWZflrJnK1MXd3hbELdiMTXMuWKq2rcHlq3Wl65annwCgCiiyAMAPVI7Ec4vkeHkG6+8dvf/XcQaGtXORgzepxdc/X11q5dO/9a42hcvUfvTUUlyx06pL5tcmJpceLrsWPG27hxE4JXMbPfftN3CwcAUUcQBoB67NxVs6S3rrq/sSoO/24LklRxCOlvGkfjpqLeJKZMucrXNc7JyQ2Gpi8rK8uXQl999XXBkJjVq1fWulseAERVZlHPvg8GzwEASejGGOrzN6T+eBcuXBC8qk3jb/l4swu6H1mnTp2r6givW7/Wnn76cVuzdrUfJ5WhQ4fbbTO+aP369g+GxBw+fNiWLl0cvIpp17ZdjUZ36rNY1SBuuvEWKymp2V2aumx77rmnrIIbaQCA12rc+CmpK58BALy77/pzKyrqGbwye/mVmWmXrBZ06+7/DfsOTkU35VD1iV69SoIhNb32+su1gnCPHkV2z91/EbxKbfPmTfb8C09beXl5MAQAQNUIAEhDYm8OV191nXWM646sLgrAdYVglepeeeU1/qYcyULw7j2l9vs//KZWCJYOuanrD4d0e+cnn/oDIRgAElAiDABpUsmrSmBDpbt32RNP/N5XR2iskReOtiuumJr0jnQnTpywt+e8aR99tDQYUpsC+dix44NXNakKhvol1h3tAAC1EYQBIE2q66uu0OLt3bvHnnr6MTt69GgwJD2F3XvYddfdaIWFPYIhNS1a9IHNmz/XTp06FQxJ7r5v/LV17NgxeBUrfV67ZrWtWr2SAAwA9SAIA0ADXDhilN1ww83Bqxh1RfbBB+/5Kgj1lQ6r5Pfyy6fUaHwXb8PG9fbWW7PSCrEjR46266+7KXhltmvXTnv0t/8VvAIA1IcgDAANpF4dpt38+eBVTRs2rLMtWzbbvn17rfJsrGcIdYWmBnMFBd2tb7/+vk5wogMH9tubb71umzZtDIbUTYH6q/f+pbVvnxMMMXv11Zds2UfcMQ4A0kUQBoBG6FVcYtOnf8HatcsOhjSOGrC9++4cX5rcEHfeebeV9KruHq2s7Kj98lf/YadPnw6GAADqQxAGgEbq0KGjXXftjda//4BgSMOoF4i577ztb3mcLpUu33D9zTZkyLBgSMwLLz5ra9asCl4BANJB92kA0EhHjx6xp5953J599kl/A42GysjMsMrK9G9u0b2g0P7sK1+tFYIVgAnBANBwlAgDQDNRNYnBg4dYftdu1r59e1+PV6W9qi+sx9ixE6x37z7B2DH6+5y5s23ZstR1e1UPWF2kXXrJ5GBItR07ttvvfv/r4BUAoCEIwgBwDt100y02fNiFwatq6nli/4F9/jbKhw4etMzMTN8tmrpsy8vrGoxVkxrl6W5x9XWxBgBIjiAMAOfY+HEX2eWXT7XWrVsHQxpu4cIFNvvtN4JXAIDGIAgDwCegc+cuvtFbSUl1zw/p2Llzh73x5mu+z2AAQNMQhAHgE1RU1NOGDB7m+ybOyanuEzje/v37bNWqFdwtDgCaGUEYAM4TutFGdvv2vqGd6ghLWVmZv9kGAKD5EYQBAAAQSfQjDAAAgEgiCAMAACCSCMIAAACIJIIwAAAAIokgDAAAgEgiCAMAACCSCMIAAACIJIIwAAAAIokgDAAAgEgiCAMAACCSCMIAAACIJIIwAAAAIokgDAAAgEgiCAMAACCSCMIAAACIJIIwAAAAIokgDAAAgEgiCAMAACCSCMIAAACIJIIwAAAAIokgDAAAgEgiCAMAACCSCMIAAACIJIIwAAAAIokgDAAAgEgiCAMAACCSCMIAAACIJIIwAAAAIokgDAAAgEgiCAMAACCSCMIAAACIJIIwAAAAIokgDAAAgEgiCAMAACCSCMIAAACIJIIwAAAAIokgDAAAgEgiCAMAACCSCMIAAACIJIIwAAAAIokgDAAAgEgiCAMAACCSCMIAAACIJIIwAAAAIokgDAAAgEgiCAMAACCSCMIAAACIJIIwAAAAIokgDAAAgEgiCAMAACCSCMIAAACIJIIwAAAAIokgDAAAgEgiCAMAACCSCMIAAACIJIIwAAAAIokgDAAAgEgiCAMAACCSCMIAAACIJIIwAAAAIokgDAAAgEgiCAMAACCSCMIAAACIJIIwcI5NaN3KxrgHAAD4ZLUaN37K2eA5gBak6Htvuwz7QttYCH7q1Fl75GSlnR9fwGn20LP32KhcPd9ur1371/ZjP7w+8e87Zkt/ebc98Jz/w/nj1gftua+PMM1i2bJH7dYHZsaGN8CMh35rXxuZ4541ZN18tnxW1sG3H3nWruulZ+d2OarX33n6PQEiihJh4Bzo7r5p/5RTHYJFzzVMfwPqVTTZvvbQz+3h+4PX+Gxh+wKfCA7BQAtR5O2b2cq+lZ1hj3bItHGtW9nKirM2/UiFf6xyzzVMf9M4GpcKE0jqyu/Ybx+532aMLLDczGAYPjvYvsAnhiAMNAMV9N7m/vdNF2j/d/sMezg3w/7YMdN+5f6dltXKtrnQ+8/HK+1/llXakbPmH/e75z9yw/Q3jaNx9Z5/d/9qGprWDDfNuEJkRFWnHALSp9wzD9xt11w73T2SVItg+wKfGIIw0AxuckH2a+0y7Bb372VtWtmwTBd+K8/6esAPHKu0r7rQO/v02Rr1gfX8LTdMf9M4Gnere88Q915NQ9P6upvm9e45AABofgRhoBmMDnqB+OXJSvuWC7bTjlTYN9y//+leLzlTf3M4jaNx73Pvudm995vuX01L6GECAICWQa8RQBMppr7YMXZd8xYXYpvrC6XpvtQp05SjNd2W1TK9RlS1lC9bbr+a/qDNm3KPffNLV9qoohzLCi4Fl5cdsq3L3rJnHnnMZu+MDautwEbdNsPuvGqsDSjqbLlZwWApP21lu9fYvD8+aj9+cXMwME5irxGPnLbvfmuGTehTPZ3yw3tsw59m2k8fetU2xAbVkF6PCX1t2v332LTx/aywS83lK139jj32s0frWL4U4ua9tmTz0teu+7MZNu2qEVYSNw9WfsxK1y232S89ar95e08wsGHSWgdFI2zGF6bbdZcMtsLcNjXXwcYPbeYjP7OZ62LDkovN/3VTRtgAzX/cdi4/cczKti23156rZxnU6Oy+GTZ1SHfLc/PgueXfuuhF+9X3n7VJTe01Qsv45S/atHH9/PSrltHN34GNqddx0l4jGrx9C2zq3W4fc9t3QH7i9l1sz/zy4XrWL4BElAgDTZTnvkXZLrWqWkM6IfiLbVv5R300re0VZ629G7Vz/aOf9/L+5v/ZI9+dZhN6xR3Anazczjbg0un23YcftBlFwcB4RdPsB7/9d3voXheg48Jrlaw2lttrhF1337/aE/88zQqDwUllj7FH/u1emzqw5nSyOhXY0CvvtZ898U/2tYnBwIaYeI89/MS/2jevdwE0PqA4Wr6S8dPsu7/8uf3gtoJgaAtw8/DQH/7Zvn3HxJohSbJyrHD4RLvzu/9uv/3e9XWvo0YqvOl+e+QnD9rXtA46VQdE8etg5JX2zYf/yx6+d0wwNMFEt/6f/Vc//0O71wzBkpWdY3kDY8vwyN8kn0bhTd+x3/7yfpsxvrg6BItb/pJL77S//8P3rDB+vTSU2xcf+rFbxisHWWHiMrr5C9dxqvlrkqLr7e9//e/23S8F66fW9p3s1u9v7Wf3tcBnA59hmUU9+z4YPAfQCPkupN7SNsM+rjR783T9Ufj7OZk2rHUre/JU/eNe3qaVFWa0spfLz9rRdFJ2ow2yq28fZYU+fByxDb9/zd73w+sT/77TVvrh8/bGav8Hb+jVn7ex+mNmng24oItluXEOrFtmb8x80p5/Y4VttS7Ws7CLZeug3q67jRhQYY/NipuAjbBv/+tf2eXFQagp224L33rDnn9+ls2ev8A27HPDcrq4UBJLTdk9+ljPPTNt9kb/MmbIFXb7uO7us11e6NrdOumzNJ1XX7LfzXzLTSPL8op7mJ9Edr4NHXWB7X3m3Rolw1XLkWzdKBz94+02onPw2k176Vsv2W+ef8vmrTtoWV2KrGdnrYMc6zl8lHXb7N6/PRi3Pof32451S+39nV1s1LB8vwyl7zxsP31ygc2bv8gWbt5lBzReMA+j8oJ0pHl49w175hm3ntw8WJtOVliQY5nuv9zeY+zyfvvtmblJSs/rUOc6mHifPfw/r7CS7NjL8oOb7cNZr/r1u3TbMbPc7rF1kNHOug272C7Oecde/tANr6KAOcOGdoy9Kt+91t5/a5Y95t4/b77bT45o0+Rbnt9RMq1Tn17W6e1ZtvBobHxvjJuHv73MemoWHU1j7ksv2JOvvGMbjrig2MNt+849rLBD7O8N288lti9O6hFbx2VbFtvs1162Z9z05y3bYeVu3+kZrONO/S+0QQn7YfX6i/uepLt9bYx9+//+lU0Nvwflh2zDgpftsSfc9o3/7Ay3Lw8eayNOzbc3VsWvXwCpUCIMNFFDv0QaP933hNk3iDefXplt3EH+mC195H/YHd/6of30iXdt9luv2m++/7d2xw8XWGkwWlb/sfaV4Ll3zTSb0Cc4+B9ebr/61l/b3z38mM18S+9/1x772b/YA/f+rf1qWXjQV+ny5OB5cuXb3rK/m+6m87Nng2n80O791sM2e9vp2Ahdxtid3x0Re56GO//mThvVKfY8nPYDD8emPfuJR+zvvn63/d3Ta61MI2QV23X3fccm+LHTsHO5zdN0DpQHA9xnnIwt++y3FleF9aTz8FCwntw8fP9vvmH3PrLYwsnkXXqn/eCa2POmG2Hf/fqVVhIEUFU/ufeOv61avzN//bPYOnhxc2wdWBsbcNMD9rW40v/C+y6rMf/fv/t/2feD9/v95OEf2n13PFRdtSSzrw29OXgeuPNLl9WcBzeNH/36VT+Nxx5+0O7+1qO20J0TNFqRrkjE9sXydTPtvq//0H4cTH/2i4/Zj9w6/v5bYZWIzjb0qmnB8zqkuX1Hfferdl2vuO/B1//C7vt+sH2Dz773J+575CeTY6O+dL99JdnVFQC1EISBJlJXaFKS0fz1F3oF0ww/49OsfMWL9sDTSep2LnjUVoUBJ7uLFcYdwIeW5FjWidNWXmG2Yc7P7JmkdWz32DMLNgUhS5eouwTPkjix1p75+5/ZwuBllZ3v2o8e+bAqkBeOmmZTg+d1KrrPpg4PAkqqaTsLH3nYZq4Ognb3ETbj1tjTZlF0r00aUv88lD7tgtuC6qA26trpwfMmcicro8JttnuB/eiBmVXrMd7Cnz1UvQ6y+tqku6tPNiZ0ybEyt53NDtnSp5LPv9li+9GK6qL0rBoVa++puQ6SzcPOme4kqvqkq8Emdq6qy1t2eHvyZXxogW1wYbTcL0swP002ze4cH1ap2WPzfvxg0u9B6Uv/Yj8Nt2/2IJv0xRashgN8hhCEgSY6FITUbu7bpLrCzaWdm1a+m6Ym/1kIwlvXPRs8S7THNuwNS3RzLC+uju6qR/6X3fq5O+ymG6bbfT9LEqJDW45VBeG6lK1bYL9J1WAtPpB3KbZJ6VS1vLmflQRP65y2W8bfLN5ksXK/HBsw/nr/rFncPNgGhDUi6pwHF9R+6IJa0O4yq48L5LGnTTL10n6WFzzfuuzRFCFW3Dr44/LgUr872Rgwuaqu8swffsNv52uu/Qv7u1nBwGTcflJddhrn7kFWErcOHos9rW3Ba7Zhd/C8oVzIDOc9b/w99sgD023CwGBAlUftvpun201uWW59INX+3kBXjrCSMIHvXGu/WhA8T2Lhq5uqAnrJwObYusBnH0EYaCJl1O2xns6sdzOWCvcJpvVxRXqN8D55p638cPC0FhdU9wZPm8PAMTb1yun2zQe+Yw/95Of23D9OTKsB2IHdM4NnydQM5Ln9g6d1mNanutSt7PBBN0+TUz/2HqwKUrnd+gbPmm5qUXUJeN3LJ4utVPWqJbdLVYhvigHdwsrRx+zA5jpOVuStzVZ6InjepcAmBU9TKRw50abecqd9+4Hv2cOP/Jc9d8cgX482UWGh6p/H1L0Oltuq0kbWnd35jM0LS7Td/lFy5Z32g588ay899XP72UP321duGWMDgr82qxEFVSca2seGJtu3wkcXt4+F6ze/oFlOdIDPOoIw0AyWBn0Fh6VSdVnugq0e9QmntaSle05rNmV24K3gaTMrnHKn/f2//T974tknbNbrz9qsn3zPvvvAnTbtyok2amBB7Z4kklJQC56msOFwXMl0GikxvuV+4WX3u3mq43F/XFh3ITStqhdpyMsOL8HXv3wKgmVJi1Qbr3rdH7TSxDum1VLmq7mkMuCW+2InNi/EtvNvH/qOffe+6XbdlWNsaK/OKe++Nilf3ZLJ6XpPuKq3cUPtsd889B82c13N96vHkQEjJ9ud933PfvbKE/bET75jX5nSjNUS4pY5d8i05PtW1eN6Gxo0WLTs3KoADSA1gjDQDOYGvUVcl8Zd4P73sUr/qM8NWbFpzS0/F+XBC+zAkeCpdbHCW4Knn7gCm/GPP7dHvjvdJg1P6BJLyl3427bWFs7fnlbViAZpyROQNm0IKTWMsW/+RF1/XRk7sakK9zHqo9f3g7ziUDCk8ZaebMKZwM537affutvu+4fH7LVl2+1A4k6X6bZrPV28nTNuXpL3TwwgHkEYaAYqEd7qsu2I1q3sinrCsPoE7lJPXp7qpqHbNG+uOGsr0yg9bro91ZdULcuyghb89VM4DZ7qhgLB0+Yy6v7v2VcmFgSXvdX12mJ77YlH7Ec/fNDuvna6XXPz3XbHvf/L/m5FOt0B5FhePTUSBnQKSxbdsmwNnqZFPWK4+dE8pfOY/qA9E7yzqQ74hllS//Kph4f0Ss/TV13C7E6g6m0EmFuz/9vAjH++36YNDNZ9xTHbumyBzfz1w/ajf/hbv75u+tzddve3HrQf7Ux+ujNvX1hK68Jft+BpCjO619GYMk0bFjxrP37gr+2O6W5bBr2gLN1yyMqqTp7aWMk1X7XvNnMWLn3rG7X3pZSPRtwsBIgggjDQTGaeipXyfiM7w+q6X8a/5Wb6RypqcPd1Nw2ZeU5Kg2M27A1L29pY4cArg+f1uLu4+nL/wT32WvC0eUy2GROLgxBc3fWa77LqneU1W+3Hrc6smt0J1JDbsa6u1UbY0MIwCB+00joaJYWe2RkG8By3ztLvcq05za6aB7O87vV02VV0kRXmB88PH6zRV3JjVe83CuL1VAm4pq8Vhpfu9+0JTgbusan+jmtOxR6b/f277d4H/iXWxd6CmnU9CjOrU3xWu+r1Xbp5d9UVgcJedwbPkimwkrxwGzcTd3Km0P7A1//Cbr334bi7BxbYgMuCp02x4WDVsuUVXRU8A9BcCMJAM9FNL3RTjTwXZO9um/qr9WZ5pb3lHqnc496raWypOGuvncMgPHv+pupW8cOvTKMf0hH27cuqGy+Vbnir8V1TJdXP8oIbLNiJ7bY0WddrgTsnDq66DKy7mKWSN+gyuy54Xss102xo9+D5zs3p3Q75nc1Vy1w4YlrqaTuFX/9Xe+n1Z+2lF56w5/6trrDWQH9cU9UTRO6Qy2r0z5towp+NrephonznOquvaV064vebkvFfrWMdFNhXbhhRVSWkdOu7sSdXFlt4HxDbvdaeSXkCMsK+MqQ6aOd2iiv+fnq5bQ2uaGT1H5N6HYyZYUPr3a+Tm3r/P/k66i+98lt7KFXJt7rhi+virVk6AH8xbtkGjrFv1jX/13zPngj2sZceub/exogACMJAsznjHj88Xun//ULbVvblFMXCj586a39IcVe5e9pl2HT3Pk3jH4NpnTOzZtrSMPxlD7IZ//I9u7NW91CBosn2tYfut6m9gtflm23er5cHL5rLQSsLq2tkF9uopLcnLrCp3/pXmxH25VufLi4kPZTkNsy6M9u9Y4KQdto2LHjMlvrn9Vj8mM3bGFRN0LQfvif5zTIm3mc/uKmvP2nIyjbb6t7XWLVKfXc+Ut2bQVZfm/Z9t12ShKXC275n354YrsNDtvSVxs9DDfH7jV+/05P2njDhvgdsWtjXb/z+8lZ1iad1d/td0ltc97U7f+CCXcoQ+Ky9tiwomfbr4L4k22GMffu+y9Jq0JrM7BNZvo56VmaODb0h2fRljH13eHHw/JCVprUT1VS7VD9u2TL72nU//I5NS7Ye4vbhrOw2dsCdmM6L/QVAHbjFMtCM1Kfwtkqzy9q0slGtW1l+Riv7IOhRoi6KzP8zOxaCNfY/uRC8/Jz3FrHH5u3Ot8sv7edvQ5zZvoeNuuF2+/w1E2zs0KE29uKJNumK6+zOe+6yv/jSFTaqR7ugwOuYLf31P9iPPqjdGj/pbWWTSD7eWut20a02qkCfkmWFwyfZxcMKrFOrHOvWb5hdfsvt9rX7v2LTRnatKpX2jmy2381cFLxw4m6xrAZwWT1G2Y3XjLKSzlmW1fUCu/y2P7dv/9WVNiC4Yl6+ZY79y4NzapRup7698DH7cH9B1TrL6jbIpn7+UhvRJ8+y23W2nhdOss/fda99545R1i3MgG76P/6nRQ0rPc8ebzdeVexLvbOys61TebnlFhdZp1PbrfSo2fIV5TZiyigrbOe2W6feNumqmvNw+9fus29eN6Cq14WyZU/aP/wiuNtdmlKvg5r7TVbhCLv6pgk2tKCDWcd863vRNfYX37rf7oqr6731rV/YP8za5V+ZnbShV15hfXXr44wc6zt+ipv3TrF57+eW+05t57vs8r7h/hZTvnuZPfnG2uCV2YZ1FrcO+vntMEi9Sbh5uPj6u+yvv3u7je0WP4UG3mL5wwobdNN46+lOZKqmX5RnuTmaz97+M77xN7faWL+/ajvPt5/+e/V2rvO7UM/2rbFsHYptwg3Xxn0XtI7usm9+o3of1t3nHvvrp2xV8BJAaq3GjZ9y7q69AhFxmwu0X2sXu+Dy9umz9n9csE2Va3XY/Lv2GTYpaGT3kxOV57RucKLCKffa33/zehuQuqpttfI9tvCJh+zv/pC8364ZD/3Wvubrf7qw/Mu77YEU3WulHE+lXD++x0bV1b6p4pCtevEVK5typ03QeGXL7VfxjdFufdCe+/oIFzLctF9aboXXTDSfR5Io2/iq/ei+R2rdFKJ6/rbba8kaIU281372nfrXmab/0x88kl61ixqutB88cV9s+aqo3rRbV08HLyfeYw/fP82G1tkWzIWwBY/ZA/+Q/O5vdalvHRTe9B176Oup161Xccw2vPSw3fezxcGAwMT77JHvVd+mOSm3r8175EMr/Lpbz/rSbHvL7r73ZzWXo7514PaVrbvbWElRHduyLmlu5/J9i+033/lhjTvA1f1dSGP7uu/CD37k9vHudV/90Gc/9o8/tMdceAZQP0qEgRawyqXeUpdlx7Vu5Q7arWxqVoYv9d1SGatCIe3dgGkuMP9/7TNtmBtPtSV+5ELwrKArtk9K2ZbF9vJTi2xvm47WqVOuZWdlWlabuJK08tNWdnCXrZr7vP34//zYHnsvdZdWTSsRdo6utTfe22WZ3bpbz7zYvITKD++xtR++Zv/14A/t53NWW+HFQelxVq5lHo+bRlWJsJv229+x+16psL59+1lhhyzL1LlKhVueA1tt4fOP2vf/6QWrLmOslro0NLA9ts4O5/ewwi5uPtsG0xatr52rbPbTP7cf/ctrtvxoMLxBNtvs7dk2Ymix5WWH03bzc3COPT8/KInfvsxeeybVPByz0tUf2GP/+pD98InFjepqrr51ULbuPXt+rrZVF+vWqZPfZ8LPLy87ZDuWvW3/9X/+t/2/18KS4DjbF9nMD49at54FVpjXsbpnCb9ttK89Zd//64ft+bWnbcRVQelxbpZlr3bzET+5+HVQkGed2gUT0nR2LLOZv3jIlhddU/e2rIu287zky1i1H8183P7lfz9q8xK2c93fhTS2r/suzH7+HduRkW953btYpyw3Xo31VP3Zc/cHwwHUixJhoAWVuAPat9tn+K7Q5IT7tqkBnG4apz6Hw2rEy8+ctX91IXhn6jZ0AACgmRGEgXNA1R6+5FKvSofjra84a787ddbe/4RLgQEAiCKCMHAO5WeYTXGhWF+6OS787qMEGACATwxBGAAAAJEUVvMHAAAAIoUgDAAAgEgiCAMAACCSCMIAAACIJIIwAAAAIokgDAAAgEgiCAMAACCSCMIAAACIJIIwAAAAIokgDAAAgEgiCAMAACCSCMIAAACIJIIwAAAAIokgDAAAgEgiCAMAACCSCMIAAACIJIIwAAAAIokgDAAAgEgiCAMAACCSCMIAAACIJIIwAAAAIokgDAAAgEgiCAMAACCSCMIAAACIJIIwAAAAIokgDAAAgEgiCAMAACCSCMIAAACIJIIwAAAAIokgDAAAgEgiCAMAACCSCMIAAACIJIIwAAAAIokgDAAAgEgiCAMAACCSCMIAAACIJIIwAAAAIokgDAAAgEgiCAMAACCSWo0bP+Vs8ByfMtOmXW+dOnUMXsU5e9ZOnz5je/butQ8/XGaHDx+xwsLuNunSi6z89GmbOfPVYMRPlwED+tnAgf1t9ep1tnnzx8HQT79w28i8+R9Yaelu/7wxmrKdP6n1269fH7towhg7dvxE1Ty3adPaJk262Ip6dLeMzEw7ceKEvffeQtu5s9T/HS3j6quusIKCbrZi5WpbtmxFMPT8NNntH3369LLt23fa23PmBUNr6tixg02ZMtmys9vZokVL3LLl+/08mYqKCjt6pMxWrlptmzbF9v+LLx7vxz9+7LjNd/tf4nezKd/d/PyuNnrUCDt85IgtXLg4GNq8zsVnpPJJ7EuJn9ncy5/sd2nt2g3Wt29vv6+1atXKdpfusVlvvB28A58GlAh/2rnQe/RomR08eKjqcfjIUcvIyLCeRT1s4sRx/sv7WdC3T4l1Cn5s0PzOp/Xbu6SXCxkF/oTu4y1b3WOblZUdC/4KmD/RP+PCa5e8zj7wJNOrV0/LyWnvfyO3bt0WDDU7efJkjd9MPc64fa1z5442ZsxIKykpDsaMad8+24YPHxy8ah49e/bwoS3TBaqWci4+43zW3Muf7Hepa14X/7t55PARdwK1xXbs3BWMjU8LgvCnXGXlWV9699JLr1c9VKo2b/4CO3nqlOW5L6lK3HD+UinSM8/O9I+mlAZ/luTk5lhGqwwfUN55931b9KcldsSd4KFlvfHmHPvDY0+f96XBotChfSK7XTsfTpLp3r2bP7HbtavUh5fQoYOHa/xm6vH8Cy/Z3r37/fQUeGpw01CgGj58SDAA9fkk9qWW/sxkv0tt2rTxx+GPt263+fM/sJUr1wRj49OCqhGfYqoa0SE3N+Wlp6uvnmIF3fL933fv3pv0kvnwYYNt8JCB/sdfTp48ZZs2b/FVKkKqfjF27Eh/IGjTurU/KFScqfAlMrrcqKoX0q9fbxsxYpibpxxrlZHhx9m7d58tWbrc9u3b78eRdD4zUWI1EH2mLnVpmU6fOWNn3COvS2e/fOWnyq19+/a11ktxcZG/1HnKfd6rr71Z48AYSndZVco+YfxYX+LUJquNH2frtu3+xCPL/TCGl0nTmV7i5VUJt9WBAwf9Z7R2762sqLDde2rOR6JkVSPSmYdk6zd8fzrbS5ck8/Pz/Pz1KCzUR/gDw7vuYFGfxKoRmlZhj+7BX2M2bNhk77+/KHgVM2bMhTZkyCDb4/ZtHQDjXXfdlda5cye/fBs3bvaXt4cMHuiWsYPfN7W/7N69p6rqkITL8IHbrxSyQqmGJ9I61iXSdm49KXydray0o2XHbPnylVWX2utaT0VFhTZq1Ai/H6eax2TSnW9t3/HjR7vfhG6W2Tqzav504Nb6Dd+j/ST87oTT2LBhs/Xu08vvAzpglB0ts4/ilkuGum0xeMgFluO+expH+65KYkt6Faf8jQqls+6SGTt2lNuuF/jft8R9IFm1hbCqQ+mu3bXGF63/YUMH2x63ffT3cHz9fuV16WLHTxx322pB1e9ZY6tGhNMNnXHfV22n/u67kLh/HHHrsEOH3LT283j1fUZ9+0v4OnFfbde2bVr7xCexL8V/pkrxky1/qu+wxq3rN0LTTvxd0jj6bQ7V9xk4P1Ei/BmloJblApq5n5GzZ/VTUpt+KPXDrzPcbdt2+IcOQgoXl14S+3HXdC6eON5XszjugsrmLVttx/adVlFZ4X4cu/vLiKIDwpjRI/2Pz+49+3wp9bHjx93wAn+QC6XzmcloPF16Uhjc5gKnXoc6uoOEPner+5He4z5bB0XRSUC87t0LXEjN8j/syUJwussqCsF9XfCvdAfsbe5z9UPZu6TYn5iEGjK9ZDQt/fDv33/Af4bmWe+70J1spCvdeUi1fhuyvXRA0DR379lju1zQ0ElQY+zcVeqDisJQeLlR2zXRzp27/UmNAp72v5BOeBQcwsvhqvesfVB1+FTip0uaOlnSOpk8+eIaJwCNNW7cKBvsDqJaT9vdOtJnlB077vfNkSOHuwBQfek+2Xoa0L+vTZo00bq4ULPHvfbfH/f+5pzHCePH+PWk9aLpa13k5uTY6NEj/CXkVDLd/Godlpefto8/3uZLYbV+ddKrdSr6+4gLh/pwo+/Xrp2l/nKxTuLq05B1l0jB81R5uXXu0qnWMhQVdbe27dragYMH0w6obdtmWUaGC+I+flU7fOiIP3HU+hoxYmgwtPG0P4f7uEK1vpfhFY/E/UPjpbOfJ6rrM9KV6judzj6RTEvvS/Easvz6zPp+IxJ/l/RbqHH1XMP0t8asY3zyCMKfQV275tmkS91BtUtnO+W+zMlChA4a+iEtO3bMZr/9rs2ZO98/Xp8125+hF/Us9OMUuR8C/VAdPHTY5syZZ/PmLfDjL1263NfP099ElyDbtm3rf9zeeONtP57GP1pW5s/qVdqV7mcms2TJRz7IKXhu3brDvw5VVFTaihWrbe4779nbbrrr1m+0EydP1DpwdOvW1c3zmaTrQ9JdVpVcFfcq8g0l5r/3gV+Gl1+ZZVu2bLNW7iAaSnd6dVm9Zp3NmvW2/4wPFy/zpd+qE5mudOch2fpt8PZyAXn7jl325ptz7a3Z79iaNeuDPzSMSigVBnX+pnnS5cbE0i5RuFHI0X6n/S8UnvCEpXYXXNDfWme2tlWr1/p51yVNXRHYt++A30f692961aFu7qRLdUyXLP3IryN9xmy3DlSapxK0GuEgyXrqP6Cvr8e4dNkKv721nVQ6rhK4Th2bPo/6HmhZj7qD9Guvv+mnr3WxfcdOH3bqCps68dH2ePXVN2Lrzv2rE7/22e38+3SyFVvHmbZq1Vo//1ou7a9qgFafBq27BDvcetSJYlZWVo19QFQyqP1Z49RHJ9KjRg23vn10cnvWB5x4CsZathMnT1qPHt2bXEVC+3O4jx9y380FC/5Utb8m7h8LFy2udz9PdmJf52ekK8V3ur59IpWW3pfipbv81Z9Z929E4u+Sfk/ffHOOf65h+luj1jE+cQThT7mMzAy78MJhdtddt1c9brjhahfUelqFC03rXShMVhqig49+RM+cqbBBgwbYpZde5B/6gVcJsv6mHyYF26efedHXoYs/0z18+Kiddmf1Kj3RgUqNTyrPVlpxzyJ/Zq0fD/3AvfDCK/bc8y/51v7pfmZDlZeX28GDh4NX5n+I9MMXf+Do3buXDxRqcLV9e3Vpcrx0l1WBWtUf9rpAHX+QVXUBrYdQutNL5VT5qRrbTiWECgz67PiAX5emzENDt1elOyHRej+XYic1Z2uU/he6gBCe8OhEQKV4x44fqxGmdfDapv3ALYcCU1O9+uqb9uRTz7vvW6yKgWh9q7cBhQlts1DielKw0gmJqqvo8nu4nvVo6wKee7t1zcsLxm6c48eP+5Oo3NxcP93wBGauC56PP/5sndUWNL8KhmHY0r8nTpx0+06mn+/qdXzcNsZdEl63bqMdOHAoeJVaQ9ZdMroCpP0xfjvqZFW/QdrOKslMpEvc8b+Z06dP86WSrV0o2lVa6kJY7Xqe+q5v3LjFWrn/LrigX6N+q9KR7HtU337eUlJ9p+vbJ1Jp6X2pMc7VbwTOXwThTzv3JdWlsfjWzwqCa9eut1lvzLFlH60MRqxJ3QkpRKvUWHU04x8d3QFEAUnjhHRQGTJkoD+IKmhffvkl/u86i27fvr2/fK1uY1QdY+jQwXbzzdfZjBnT/PjhAaOhn9kUiQcOBWKd+evSXvgjnEp9y6oSNJUaqcQqng64uuSXqL7ppXTWb95m0Zh5OJfbq7FK3T6nUjotn04OdMKTm5tjZUeP+cv/KmXVfKpec/yJgOhApxJDlSY2B+1fffqU2EUTxvr6hNOn32zdCwv8JX9dok8lOzvb193WOH36ltRYzwpsqq+ourNNoWXf4taHStV69Sq2qVMm2x133OrbEehz6pOqepVo3rWfHDt2otY6Liur+R1JpbHrTnSJWieJOtHV9hd1k6b50olk4jxJrV4jDhz0J426+jB79rspfyNWrFhlzVlFIl317eefhLr2ibq09L7UUOfyNwLnJ4Lwp1yyXiNUwqKGZLpkWB81kvnd756s/fj9U/4yjw5QOmjefNO1Nm7caN/Fls7cdeCJP1jouS6f6xLaZheKVQKly5o6yCp0xV9Cr+8zm4NCqUoaOnTM9UG8W36+n8ew/nAy6S6rLtulI93ptaTmmIdzsb0aSyd9Bw8c8nU71RCn6oRnX8uVkiUz8sJhNv3Wab4+oeob5nfr6kOnL9VMk66gJF3P7vHHl14Lxmo8nRTP/OOrvhqRqsooZKoO/8UTx/m+VhtLJ4ZN0dR1p/CiwKvtruXRv90Luvm6w+pjOJlavUa8PMveeee9ekOlvjPxVST0OBfOl/28pTV1XwIagyAcUSq5VAV/lTDUZdCgC/yPvaoU6DLq7//wtD355PO+jqkaXCUq3b3Ht55+7rmX3MH7dd/qtn12tg/C6X5mc9BJgA4eanChy6QqPVGn6ir1SSXdZVW3dCpBUGOeeCqpib+M29B11xKaMg/ncns1hU56Ks+e9aWAOuFRAApvvKFApZPFdu1q1zVVvVD1t60TppBKXxNLuesrjdWJlur4qgrDRy5sPvHkc766gaoFHT9xIhgrNVXtUX1thRzVyW6MdOdbJVyq/63w9/QzL/ibp7h3+8vDjaVQqEveOTnZtdaxSk7r0tR1F9IVIFX98NPr19d3c6WAnE794IaKryKhuqPx7QJaUl37eUM1Zj8/F5qyLzVWQ38j8NlDEI4olaD41tadOtnAgQOCobFL6NNuvs7uuP1W35JbpYe6g44aAqhXhlCPHoU1LhddcvEEu/POGXbRRWODIbESLjXWC6X7mc1FLY514OhZVOi7i1KXSHVJd1lVx03dk3VzB6T4ku7i4h41LuOmO72W1JR5ONfbq7HUmlsBT41EczvEAlBYErhz5y7f2C+nfY4LLX39MNEBrldxTx8IDh2M1T1UV0iZ7rVOmkJabt2QoS46eKour+ZBdUvDknZdvtb6r4/mVfOsKyiqHhBPPUl86Uu3+dLSVNKZb3UN9YXbPmc33nCNL0kUzecxt24ae4k7VL2O2/uuuUK6KYV6c6hLU9ddSCW5qsuqdaDeBTJcsm6JEBwKq0ioWsu5CpB17ecN0dj9/Fxoyr7UWA35jcBnE0E4onSQ2Lmj1DcOGT9ulF111eV2xeWX+vp5CjoqUd24cZOvf6wzZl1S1zg6MKvP2UED+5taAIcUMjWeuoG6/vqrfF1U/avGc/rxVk8E6X5mKmGfjWq4NXr0hcHQ1FSCos/WAfW0C651VYuQdJdVB12VxKikW12IaRnUn6dKX3UADqU7vZbUkHlIXL9N3V6qFvPFO261GdOn+dLylqJAcGD/QR8kVec5vts2BSs1GFWjIvVNeu01U+0yFyqvv+4qf4lZ4Wmd+7vs3bffKior/XxfOfUy/1BfxfWVnOvzdZVAoe66a2P7/jXXTPH7hkJeOrRP6eRK2+nmm67z2+mmm661Pi4Qqj5rXf2SpjPf+n6qhDUvr7MPw1oHqjKjhrbaDVI1IE2H1vHGDZt9XcqhQwf5Zb/iikn+5FjbpC7Nse5Cqker+p4qMVVjq/gTv+amZfZVJJKUWof7vb5nddH3Tb1RFLmTUnVTGLalSKWu/TyVZJ/R2P38XGjKvpRMOuu4Ib8R6dJnqRGmfitx/iMIR5i6/lq9eq2/BK6+Iv2NG1zo2aJGI+5v+oFQfcJ16za4H5RYv7MqsVKDuJXuIKA6a7qZhDog37Bxsy1ZstwdgE74W07qR1b/Hjx0yN5fsMiXLqb7mamoUYwuneV3zXPT721d6ikhCA8c4fP6SojSXVZZ4JZJfUaqpLlXSbFv7b9jx04/f6GGTK+lNGQeEtevWko3ZXudSyqdU/WC8tPltU541OJcneJrH1CPH721Dtpm2Va3vLqRha5cSLiudGlW3f2pvqmq1+hkoC4aR70u6KSjU+eO1q9vb39jFd1qVS3fdem8Y4e6t7PmcdGixe6ge8RvD9/rgQuHBw6678/7i+rcd9OZby276nPryoAaR2od6GqGTpI076ka1aZrzdr1bjor/RUE1c9VFY8jR4/6qyd1aY51F9I60kmDLmXv33fQL3NL0udtcb8BCm2NodJcfQez22f75da2q09d+3kyyT6jsfv5udLYfSmZdNdxur8R+GziznL4TFNJQt++JbZi5Rp/wG1JqourEi11S/bKq2+cNyExCnRJU3dN27/vQNI7huGToV4pVKq2aOFif7IcFboJjU40Xn55VjCkeUR5P4/qvoSWR4kwPrN0+V6XSVXKWV9pcEMMGzbYX/qcOvWyYEiMLv+3zWrrq2MQgs8thQ6VBO4Krjzg3FGd1c9/7kb7nHvEV4HRNlHptk4Mdae4qFDdUl090WX55vZZ38/Zl/BJoEQYnzk9exbZhRcO9Y0/1JBF9Svfe29h8NemUz2zyZMn+gYdupHHocOH/Wd1c8N12VKt8nWpDS1PdZY7d+4U6xXk8FGb+878Fr8kjtqmTJlsxS6s6CRQdVcV1lS1RpeXN2/62FejiQpVa1Efw6tWrmm2ksso7efsSzjXMot69n0weA58JqjusOq4KgTv2b3XlixdbqdOnQr+2nT6gdZBqJM7MHVxj7yueS4UZ7thZfbR8lU17pCFljVk6CC/DY6fOGnLl6/0DaZw7qkxnuoeq2W/6vjqaoxKRDds2GyLFy9tdD3aTyM1rlq7doOv391corSfsy/hXKNEGAAAAJFEHWEAAABEEkEYAAAAkUQQBgAAQCQRhAEAABBJBGEAAABEEkEYAAAAkUQQBgAAQCQRhAEAABBJBGEAAABEEneWwydqwIB+NmjQAOvUsaNlts40O3vWystP244dO23xko/87YylX78+dtGEMXbMvZ4581U/rKUVFna3SZde5J/Pm/+BlZbu9s/ToeUaOLC/rV69zjZv/rhJ02pugwdd4G/Zunz5KtuwoWG3g27Ke6OkZ88eNnbsKOvYsYO1atXKdpfusVlvvB38tXk0ZZ86F/PXEs7n79X5LnHdAYihRBifiDZtWvsD2MSLxlrnTh3t4KFDtmnTFheAd/m/93XBd+rUy/x95j+N+vYpceE+FjLON/0H9HXrvFOj5q0p742S3r17+e1/5PCR2H69M7Zfny/O9/lL5Xz+Xp3vWHdAcgRhfCKGDx/qDsYlduLkSXvn3fft1VfftPnzP7DZb79rr73+lu3ds8+6dO5kY8aMDN4BfHrktG9vlZVn7eOt2/1+vXLlmuAvzUeln888O9M/GloSei7m71xoyjoAAKFqBM45XY6dMmWy5ea0t2UfrbQVK1YHf6nWt29vGzdulB0/dsLee3+hdenS2VeNUFWJw0eOWFGPHr4qxZkzZ2zbth32wQd/stOnz/j3qrR51KgLrZ+bRlZWG9MOfvzYcVuzZr2tWr3WjxMaO3akG6+PtWvX1r8+efKUbdq8xT78cFnSy666tDjaTVulKstXrEoaIKZNu75GSfbhw0ds4cLFsWm10sF7jxX3LLI2bt4qKyps9569tmjREj9eaPiwwTZ4yEDLbtfOv46fr7pccEE/Gz16pF/HGW4ez5xx09+9xxb9aYntcZ9z222f8ycYoYOHDtvTT78QW78XjfXL3KZNG82mf2/p7t32/vuL7ODBQ0nfqxA1ZcokX51F0wkVFfWoNby+eUsmnM5pN519+/Zbnz69/XYvP1Vu6zdscuttsdvup/246SyD6G+Xum3Rx52Iaf/QOFu2fGz5+V39Nnn77Xm2MyghHTVyhDtpG2LZ7bP96xMnTtiG9Ztsgdvfkgn3mXB8OePm7wO3/bdt224j3fRUMpdsf5Pw/afdfq19O88tU7l7/7JlK93+u86PE0rcP0WvNf6BAwetV6+e1rp16xr7WHZ2dovMny61l/QqrvpsPffbqbzcNm7c7LbzXhsz+kLr4La9aJzFbpqlbvuLvi/6LhYUdLM2bp7dF8wq3HbZs7f6u1Hn98oJv6P6/qe7HHWtq/jvY6Lz8TPiq4wlDk+27jQ8nfUumpcJ48f6ZdB3RONsdftLXl4Xy3Lfp/hqKen8dvXr19tGjBhmHXJzrFVGhp/e3r37bMnS5f57DpxLmUU9+z4YPAfOib4uzJSUFNtxFyqWLl1hp1yoSXTIhaxVq9ba+vUb3Q/pSR9yinv28Afy9u3b++B0yP1I5+bkWJe8zpbhfkx37Yr9ECs46eCh6e7cWerDc6dOHVyoKrTWmZk+iMqll1xkF7hgq8CkYUePllmHDrnWrVu+D2rHXHjWfMpWF7bDg4YOBKvXrPX1ZJPR/LVr29YfPLbv2OnmdZ+VlR3z08rObucvT+4/cMD2ux98BRKFy7Zu/K1bt/v3X3zxeBs6ZJAvsdu1q9SOHDlque6AoYNbh9xcH/yTUWicNGmi/wytHx1sW7t50PLoM9au2+BPPtq5A5TCoA5kqhu6xx2Arrzycv/+MrcOVD1F89vejav1nus+U2Em2XuPuPH79i2xiopKt72qTwo6dOhQY3g685ZMOJ0cbWc33v79B/yBUtupR2GBX9cff7zNz1M6yyCXXXaJXTCgnw9y27fvtMqzZ61Hj+7W1oUNDduyZavfFzTeiAuHue1QaTvceIfdPqn50X6kMK/xEmk/VNhRwNZD60jLqn1z5IXD/cnAWbddtV9q/9JyFHQvqNqumk/tJ1rXrTJaxfbfEyf9Z4X15UPhuKL9U/Ra60R17rWuDroApu9M52Af2759R4vMn7ZJdxemws/et3+/r3aR697ftWueP/HTeix1n5PhvoPalh06xraJvieXTb7E7d8FfptpXnTiqu+Gqk3luH1fy1/X90q0DvT64onj016OutZV+H1M5nz7jAq3bteurf4OJQ5Ptu72u22UznoXzUtfF171/djl5kW/TYXdu1nbrLbuO65QHKz7NH679PyiCWN9uN+7d78PwPot6Nq1i/+NDb+nwLlCEMY5V9yrpz9oHjp0xFYnlNCmEgZhhRaFZ5UE6kc6q20bH6bcYF/XUQ3v1CjkwIFD9uZbc22D+1HdvPlj/4OssKMDs36gVfo3dNgg/yP+/oI/uWku9+OpdLC7+4FXWFApVniQVYmOQrBKOVa7gK55SEUlIyoRU+hbtWqdX8bwwKRSMoW+d99d4C9L6/O7uwNRazdc8695HDZssA//c995z5dgb3FBTwevni6Ade7SyZfSKKglGjToAisuLvLTmTXrbb88OoD2Ku7p1lNWbH2vWWd9XLDUgfGjj1b6MN/HnTRonSlAqsGUSh613lTCrtCn0m+FWdUjTXxvYuANJQ5PZ960jRKF01Gpk+bp9dffso1uGloHavClA6dKerV/pLMMGmfEiKH+JGnuO/NtyZKPfOMhTSffBTaVdGq/UlBRafBJF/LeeHOOfbR8pf9cnQBo/1VJqD43cZ7Dky9tf4X3zW5aH3641O1TBTZk6EBfev3eewv9utM60HZUEFEo1DKddTuy9hMFaq3jP7n3JgvBEu5TEh+Ete9qO6u0XvvOyVOnrNDtVxquabbE/OlEJPGz9X6tJ5UalpWV2Zy5823duo0u0B3z+7nes3//Qf93Xb056oLUXDfO+vWb/HwpdOm7oW2nMFfX90q0DvRb0JDlqGtdxQfLeLpadb59Rn1BONm6U+luOus9nBeV7uvKiuZFBRQd3XdThRAaX+te36F0frsKCvKtqEeh+9tW/7k6GdD8FfUsdME6y1/x03IC5wp1hHHO6cc4I9Pteu5HvKFUYrFxY3VvBQpQutSoaYpKn1TqW3m20kaPvtBfAtdDP/o6aLR34ykEazyFq0MHD9colVGAeuKJ51zgmh0MMV/y5S+Pt8t2B7T1/vJdY51yB8GwQaAcPnzUX/ZXKOjatas/kGe1yfKBXKE+nH99vuZff9P8J6OwpFI3HfAmXjTOh0OFtSeefM4ef/xZXxqYjMLp73//lK9nqQNVSKXyOvhlutCjg1xTNHbeQrp6oBAVUvjSyYlCtNZZusugk5wsd7DVJXmVToVU3eGEC72hQhcMNW0F42FDB9uUKyb7h8LxWbcc+pvCY7q6devq97c97uQqfvurNFslhQoAKikLaZ4Pun2zMU6Vn/LBIqSSxDPuhECfH/8Z8Zpr/hI/W+tP9rlphNtF1WFUtaWV+0+BWp/x9DMv2ksvvV7jxCL8bmS4759K4NPR0OU4F+vqXHxGY6S73sN5UbuN+HlRdQeF3lC6v116j36fdZVAhQv6XmrfeOGFV+y551/yJ2rAuUQQxjnnQ1FFpa+P1lCKzmFd4GTUCEjTVZ03dbkW/9AlSR14damuffvY87Jjx4J3pqbqAKrbqANDXl7nYGgjuQWoK/+HJwkKionz39EdMDQPYehPpFIaXbZUSLvwwmE2Y/o0+/KXvuADnNZHffSZKi3V+J//3E129dVX+NJflWKr9LApmjpvqmsc1tsNqdRIAVfbM1TfMuiEQ4Fcl+3jqdTqlAt3IV0e1rS75nXxl6fjHyot1r6Tajskk+lOzhQG1P1fIgVw1ZNUVYVmUc8+lkyzzV+Kz9a0Q/r+Jps9BaIhQwb68HTDDVfb5Zdf4tdx68zWfhumo8HLkWJ+63JefkYT1LfeVXKtqg6qBhVPVSn0vQzpPen8dumkVVVyNP9D3UnmzTdfZzNmTPOfn+okH2hJBGGcc6pLVlFZ4YJJdsqSHg2/Zdr1duutN/tLcw2hkK3Ltr/73ZO1Hn947Bn/N132SzeIqwQwvCyp0KYSjpamPnqTzf/vfv+ULViQvKGWLqOqx41XXp7lG5Kp5KmdO/AovF191RW+VDwZhcPrrr3SprtwqrqA6iKtY6cOdsxtJ5UMNYfGzlt9lC8UGNJdBgWMhlizdr396j8frfX4T/d49933g7HQFKq3OnXKZLv5pmtt3LjRvn6/6sJqH6nrpBdNk+561xW2hqjvt0vTVu9Ab7451za7UHz8uPstaNvWB2aFcFV5As4lgjDOOTWOUKmGSm/D+n2J1OhJDZ0UdRpSX0xVD1QqoQZpddGPvapUqLFdPAVdhW+1sg5LGtXqecOGWF1jRecB/fs2uapAKiphUfBuyvR37iq1t92B5rHHn7Fnn53pS260LlOta9Xr08FH61n1ax955Lf26KOP+94cdMKSDtVx1qXRkErc27SuXWLV0HkLJU5fdNBWHWtd1k13GXRZVqW5KqGKp/0tvoRNl/5VH71L5yZeAQhoPnXylePWSyKVkunkTd+JT8onOX+qP646wzpBVp3R3//haXvyyed9vf1097/QuViO8/EzFFZV3SukcVSSW5d017vqNPtqEu77Fk9VM1RlItTQ3y5VT1JvE88995L98aXXfZWZ9tnZBGGccwRhnHMKLrpznPul93XJEksDVT9T3ZSp9K50154GdaejFvBqvFHQvVuNH1Q91+U3PfR5qmenroXUgCM+hGk8NYg7cfyEP0DEU+MP9bCgAKbL7y1BdQl1iV43rRg4cEAwNHb5ctrN19kdt99qgwcPDIbWdPlll9qf//mXfe8MIdXDja/Hl4xK37WudSBS3dtQz55FplbhdVFJr6oaqN5t/AGwxK1j9a4Rauy8hXSJViVWIZUk53ft6huzKUynuwxqAKmQq30sfr/TPqA64CHVhTzlToB0mXfo0EHB0FjVi9tm3GJfuefOBl0ZUOt47W+J+6VubKEAc/pMrIutT8onOX/6PqknCX234uvr9+hR6PerhjgXy3E+fUb4/dN3Lf7qmt6jEt+6pLvew3npVpBfY16Ki3v4nlZC6f52XXLxBLvzzhm+q8OQ6ggn6z0IOBfoNQKfCJUKq7W4Hr1dCFGPAmrIpB/KYS54qGRA9cjee/8D/0OvAKJeI3RZLb51dOLwI0eOWEG3br57puLinpbfratvGT3ETVfdFW3busNWrFztSw5V2qe/qwVzt/yuNsCFK4WtMxUVpq7b9OMfhmS1ilaA17z0KOzuDzoKSgdcmEtGy6S6pCoZ1QFHoTp+WmHITmz1rh4tNF9d8/PcfHX360QNzEYMH+pLqH1fm0uW+flIpLrMOlAVdMv3n68D2qhRI/y/qpetkh4tt9ZHF7fec3La+5bfaoimVuJq4a8Sol7u83SpVEHRnau4g251l2KJ712/fqP7zCK/HdUTiErU1UhR01Oplg7U6q0h3XlLFPYaocZBKhFWAxv1cqEGbColVmt8zYP2g3SWQQ2E1DuEuqBSjxVav7q5i7r0U6NIza/G04malkkNhfSZmqbG0Tyrvrj2TfVhm2w7SP9+fXydZIUMhXM12lNACJdB+1v//n3d/n6BCzFZtvXj7b4/7cT9IfFkLF6qXiOkrn1Mw5t7/lIN1/rXelRoU1d1IZVG6sRF42o7qicBfWe1PVQ6r/WsngZUKhr2SqBp1ve9UqPLlliOeC21ruKl+xnq11o9UGjd6bdM42l/1vpUjxHxv5eJ604lyumsd61T/11w09Y4+k6on2B9x2L9gcfGS/e3S/0Va571PQx/93VS2b2gwM/TihVr/DpRV2zqb16/K6pXDLQUSoTxifD1xGa/a0uXfOSDmAKM6ojpR1GhRb0zzJk7z4/XEBpf79u06WM76/7r5X5oFcBUj1QHhIWLPgzGNJv/3ge+GyGFGR2wdalPVSbUNZu63kpGIUm9DahO6sBBA1KWumgc3TVPP/bqPL5Ll+obUdQnnC9dalTo1rypn011RaS/pVona9eu9/OuZch3B1BfauoOXgoh77zzXlVjM01HJd46yF5wQX9TH8r6PLX2VqhVSFLw/GjZCtvv3qvSIR1Ak71X62zhwg99cFS/oNqG6i9UvW9oPkLpzlsqCsu6lKoDt0rFdPBVB/2apihIp7sMupPhxg2bfAM6hWqVsG3dFluueHPmzPNdRamUS9Ps7cbVdt/k9o3Yvtmw+tPa93RTl3B/U7du2tdXrFjlt+sn7ZOaPwW6des2+G2n/V3bRNVUVrqT0YMHDrng18bUD7ik8706F8txPn3G4sXLbFfpbl/PVt8Nhc717uRQ35l4ietOfQmnu94XLFjku1bTd6aXC9R5Xbr477ymF0/zVd9vl35blyxZ7hsCqjGqfjP0r26z/777nPgeNoBzgTvLAThvqQRKN0iR+Du+NTeVul1xhe6EV27Pv/Byg0MuEDW6SqKeHtQY9ZVX30h5gg6c7wjCwGeALneqO7LPEvXOkBiEb7rxGv+8MTS9kSOH25jRI30J2muvvRn8xWzC+DH+LnIqjXr55Vn2ta/eE/wlNTWmU6M84LNMDVEvHDHUdu/ZZ7NnvxMMNV8FSneR050iddMZ4NOKIAzgvNXcJcKqw3zl1Mv87WNVLUOXgHUp2deprKjw9X7VKBJAjKowTZ480dTLj26icujwYd9GQHWG1Z5Cd2eMv9kN8GlDYzkA562wsZyEDfaaQnWUdTdCNa5TA6D8/DwfitVqXXUt1fgOQDXVNVZD4U6dO/mGdXld3XemfbYbVmYf+dstV9/pE/g0okQYAAAAkUSvEQAAAIgkgjAAAAAiiSAMAACASCIIAwAAIJIIwgAAAIgkgjAAAAAiiSAMAACASCIIAwAAIJIIwgAAAIgkgjAAAAAiiSAMAACASCIIAwAAIJIIwgAAAIgkgjAAAAAiiSAMAACASCIIAwAAIJIIwgAAAIgkgjAAAAAiiSAMAACASCIIAwAAIJIIwgAAAIgkgjAAAAAiiSAMAACASCIIAwAAIJIIwgAAAIgkgjAAAAAiiSAMAACASCIIAwAAIJIIwgAAAIgkgjAAAAAiiSAMAACASCIIAwAAIJJajRs/5WzwHPhUufqqK6ywR3f//Mzp0/bBwsX++UUTxtix4yds5sxX/euLLx5vAwb0888TVVRU2NEjZbZy1WrbtOnjYGhymsawYYOtQ26OtcrIsEr33j179tmSpctt3779wVhmhd0LbMzYkZbXpbO1atXKyt28ffzxNvvww6V2+vSZYKz0x4t36SUXWXGvIlu0aImb3y3B0PTU9d6hQwbZ4MEXWPuc9tbKvT558pRt3rLVli1bXjUvbdq0tkmTLrYit84zMjPtxIkT9t57C916qGzwcoSuuupy69GjMHhVLdye6S5jnz4lbruPtRMnT1Zt91C/fr3ddhtinTp19MtWXn7aNm3+2JYu/ajG/KW7fZPRvpifn1fvPDdmeetatpbc15JJNS/J9o21azdY3769rWPHDv4zd5fusVlvvB28o1rPnj1s7NhR9Y6XjD531KgLra+br7Zts/ywZNtX400YP9bv/1lt2tjZs2ft8OGjtnrNOtuwYZMfpy5j3brr16+PtWvb1nTALDtaZitWrqnx3mTL8facd+udv5Ejh9twt39mZCYvl9L3a8XK1e67uCIYUpN+3/r07lXvvjdt2vX+O5CM9vUj7ncw3fUBfJZQIoxPtbOVlVa6a7cPbUeOHA2GJnfSHbwPHjxU43HGHYg6d+5oY8aMtJKS4mDM2gYO7O8PhrkuKO7Zu882uwNZ2bHjVlhYYBMnjqs6wOTnd7WLLxnvA8fBg4dt27Ydbh7P+pA1ftwYP46kO15IB/JLLp7gg0iGO8g2RH3vvfDCYTZq9Ahr3z7bDh445ANSpVuvgwcN8OEh1Lukl19eHbw/duv74y3b3LTbNGg5ErVv396fjBw+dLhqm+hx6PARO3WqPBirblr3w4cPsawgaMRTOBk9+kLr2KGD7XWh1s+fC0GDEpYt3e3bVA1d3rqWraX2tVTqmpdk+0bXvC7WyYXCI27ZFNB27NwVjF1Tbxfi0hkvGW1DbUvRcukhidv3sssu8SdE2v937iy1Xe43Ize3vd/m2vZ1GT1qhPsuXODem+Gnv2fPXstx+0nie5MtRzrzd+KE+106VL0vhA/9nun37UzFGTtWdsyP21QKvNu2bffzFz60vY65fV2/g2Pd76B+J4AoySzq2ffB4DnwqdK/Xx93QMrxIVglW8ePn7Au7mBf7MKPDsgqkZJevXpanjso79u731577S1bt25j9WP9BuvevSAWdM6abd263b8n0bhxo11IyrVVq9fZ/Pkf+PE2bdrs39slr7MPNzq4jhgx1AWC7rbVHfDefHOObXGh8tDhw9ajR3fr2KmDHXYHyaNHy9IeTxTQFWR79iyMlVS6g+OOHbv8wbI+9b1XIVknAdnt2rllW2vvvPuefeyWTWFBy6ZSTq3XQy649XLT6l5QYPv3H7C358zz46gUOd3lSKRx+vYtsZMuCLz62pu2Zs36qu2iUqmjR+s+sQmNHz/az9dZ9195eXnVdpdxY0dZ1655vgRujptnzd/RsjIf2nJcENq//6APAelu31S0L+pEoq7t0pjlrWvZWmJfq0td85Js37jggv4++K93y6arEHvdCUYyCpnpjJdIJzlDhw2yM2fO2HvvL7Tly1fFtq9bFm3fDh1z/bLpREDzolJwbdtlH630JzpaBq2DDh1ybcuWj/13I5H2nVEuCLfKaGWLlyyzxYs/so0bt/jS3YKCbta6dabbT2JXkhKXIyurTVrzt8X9fq1fv6lqX9BD86fly3HT036i72Yq+n3r3LlTvb8Jg9z8tWnd2latWmcfuXUQBnN93ze6fT2/W1fr5KbjzhT9MCAqKBFGpCkwl+7e4w6CZ61du7bB0JoKuuX7oHiq/JSVllaHIb133/79/nJ727ax9+Z37eoPfDoohfR8/74DltUmyx+UJd3xRAfiPBfGjrgDaH2X6BPV996ubj60bLqUHX8SoAO0gl9rd+Ds3r2bv/SvkmNdvlV1lLvuut1fkm3IciTSQV4lygraWpeNodK6kl7FtmPnTjt18lQwtFq2C6cnT52qMX8KvhVnKtx2a2UZ7uSgIdtXVI1kxoxpdteXv2BfuvM2mzJlsvmR6tHQ5a1v2VpiX0ulrnlJtm988YvT/XMN09++eMetvmpBPIXzGdOnpRxv+LDBVetZj9tm3OJLYUNdXGhrnZnp9tWjNZZN+3FZ2TH/N203VVVondnaL2/8eAqc2s875OZacXHPYGhNCsmZbjoKrwqrIZXi6sqC9qFUy6GTo3TmLxlVl1DQ1tUJVYtoadof9+7d76thxM+TqtRcf/1VducXZ/jtqu1wh1u2SZMm+pNordtbbrnBD+vfv2/wrhidGGg/0P4BnM8Iwog8le5kZLTyJV2iA7EOZP7g5g5yOhi98OIr9swzM2uVCob1AVViqANXu+y2vrqFwlY8BVHVStAl1XTHC50+fdqXJL3xxtv+PckkznMonfdK5dlKP24i5TsFhZ27Sn0VFF2qDS/9qh5xusuRbP5yXcjQpWqtdYWcWLCcEdS3rQ5nqZZNJWb9+vdxn3W0qlQu0SuvvGFPP/2ir+4hes+YMRf60luViir4prt9RVUDVI2kbVaW7XLv1fsLCvL9lYh4TVleqW/ZWmJfa+x6Ttw3VMqoUKXniVWXdPKkQKVlPn78uN8uqcbTSVxYHUEPbYch7iREdd1FdXQff+I5v2/H07rMzm7nT27D7Sbxz+Mp6Go7S/z8iUprn37mRb8ficLf4MEDbeAF/f13Q9UkUi2Hri40ZP5CWvd9epf4babw3diTxIbqqP3TBXmdNImukqlakKq46IRB3/nS3Xv9dlD1CVU50rZSlSOVNHd3+1o8fS+0v+t7ApzPCMKILIWhUaOGW98+vf1BSQfvhlD9wG7d8qtKHFW6qBIiBcr9+2tOSweXsy4BqVQw3fFCr776pr377vu+JLGh6nuvDuKn3Wfqkm583UAd8Lu5A7aqU8hKFzoUGDVvmpYuMSs0NmQ5EsUOvJnuAJpvh48c8WFC4TqdermaP5WaqaRvxYrVvgFSfdRYaOrUy3zQ2H/goL98XZfE7avPVD1QBaBVq9bam2/Otbdmv2NLliz3ga0+6S5vOsvWUvtaonTmJXHfUBUUVcHQcw3T3xYs+FOtKxIKUYv+tKTWeDoxLS4usrJjx2z22+/anLnz/eP1WbN9I7WinoU+nKcyaOAAvz/rRCe2jk/6Ez0F0PiAr2pDKvFNl04UdJKgKiJqVLrRBUNVs0i1HKmu3iTOX6ILBvTzQVkBUkG8pWm/u+iisX6dap/YVbrHD+/ltkG7du1stwu/L78yy3/nFerXrl3vlvOsdeoY2181n6p2ompU2l9EJxZ5Xbv4RpWlwfSA8xVBGJERXrYNH9PdQW3EiGHW2v147yotdeFmjR9PJR8qyXnm2Zk1LpXHU8MbXQLV5c0N6zf5oKSSJdUldMdCFzxSl+KkO15DpDPPyeggvtUdjBXuRgwfYtdcM8Uum3yxTbv5euvUuaO/VJpKQ5Yj2fxltW3rD7wKlbNmvW3vuMCuurP79h3wl71V/1iSvVcNjXQAX7duQ1phQSW2CiZqGKTL3Pld82yyW85UYTvZ9lV9YZ08HXMnDwpBIc2DQk28pixvOsvWEvtac6zn+rz//iL73e+etDdcUE5FJx+qsnHmTIVvVHbppRf5h0rjFcDqqs4xYcIYd0LXy1f1UXAXLZfaB6jkW/v2FZdfale6E6JLLpng/x6vrvlTSej27btsx/adfjuqsWFYOp2uZPMXT8vVraCrP+GIr6rUXFq3aePXZfzvoE4QB7pwXunW7erV62zNmnV+XJW4P/Hkc7XWxaFDR3yju8zWmf719u07fFUPnRyUlPTyw1Rv2Yf9Q4dTnhAA5wuCMCKjVq8RBw76EhmVdMye/W7aoVSXRtXaXpfH1TBmydLlfrguc6o1vkJlWDKSTLrjnSuaf3XNdKq83F/eVEmZSnLWuIOiStJSaepyqNTw8cefrVp/olI1XWpXCX1idYOQ1n9J72IfbtKtP6ntra7eFD5ffvl1X/ofHz7jpdq+We61grFKcXUCES9ZHd5E6Sxvust2Lva1xqzn5qDSUF2i1/pQKWz8o6ML5arGpHHiadkmuYCnKgvaj5cs+aiqXq6+1/Pf+8BXEVJ4U8O+gu7d/N9V2pmujRs327vz3vel1ArMp06d8t2xqYu4+tQ1f/FKSnq6ZYtV22mJ0uD4XiN0Unj82HG3f1TaTjcvqv6xNG7fDKnBoE5CdBJx003X+tJjBWp9H0TrV2HXtycIqkeo3r00ZP0CnxSCMCLj0MHD9tJLr1c/Xp5l77zznm+hnS7VL9VDB2OV6CwM+i4WtTpXPWM1iFIjtHg6SKg+pkoT0x3vXFLpj+rI/u73T9nv//C0PyjqYJeZkeEP+Mk0x3LoIJtIXUUpgIcH2kS6ZKvpq4T/jjum+1Ktq6++wjeMU+mlf11HAx0duMMGkupWLV5d27cuCpzpqG950122c7GvNXU9N5V60lDpbK2H20dV9SCkUvorLp/kA6lKJhVSE+sy64RDVYR0IqJp6F+91nu17tM5kYmn0lqVjKrKSFi/OJV05i+k0nC3uaylqhNof9i6dYc/+ddJ4ZtvzXWh+4gVFRXaxIvGuf2k+mRJ21gN5W5wD9UH9qW8LqTriooCdTzN7+ny076HFZVq6yRGvaNQLQKfBgRhIE1qSDNk8CAXpE77+qWqHxhPDWdOnjjlq1rEN3YT1Q9V/UEdkNMd71y54fqr7Qtf+Jyv/xpP/c5qXg4nlH6GmrIcqqup+pZTp0729UHjqQsnBXDVX05GJagq0Yp/qGRf3WHpkrNeaxw1FPvc5260Wz9/U61L6b7KgAuBComh+ravpn/GBQD1LpIYfnRZuC7pLm+6y3Yu9rV056W5qVqASikVxOqjcRQyVc9aXeGp67bEklbt17fddovdeMM1wZAYbZPcnBwf4BQGkxkxfKjv+UDbLVFmpg6fbg/SSkwhnfkLaX/Nzc3xJ57nqiRVjeBUOn3cbc/ubh7Dvo1FV0tUhUhVd96Y9bb94bFn7KmnX/BVhVSNIp72C9V71/yri8B22e18KbG60wPOdwRhIA3qPqpf39528tRJf4l9w8bNwV9qUndbKkWLb8yj513z86z8dHlVH6npjnculJWV+WoAOliH1FAs1tjlRMoDtzR2OVQHVf35qqsm3YwhpODQs6jQh4tUpUlqnKUSrfiHusJSl2gKUXrtG3C5EKiQoxJM1csM6TPUf6wO5QcOHPTD0tm+27fv9D0v5LTPqdFVlNZVfaEt3eVNd9mkpfe1hsxLc9K6UvWBzp06+bqrIa2raTdfZ3fcfquvtqHSywnjx1hXt59q3b3x5ts+2CVStRid3OR2UEirrsag7s0U2A4cPOg/Mxn1lKF68irJj7/hTrjN1UgsVdhLd/5COjHRVQF1zZZqflqCvt+bNm7xJx+q6jEg2Ld1tURXTXzvKLtj30UtkwKzqggl0vdNw4uKevj9ebd7DXwacEMNfGqFN9RQK+3dwQ+1LsmluqGGLkuqFKs+qot43bVTfT+YB9xBVC2nR44c5kOMDtAqudEBOv6hfmhVilPhDpo9Crv7EshexT19yBniDtpt27W1bVt32MqgQV664yVKdeOGxHnWsiZK9V71DBGblzzfZ7B60VDLdZWarnfBJ1xnCspadoXBcFi6y5Fs/lSipukpKBS5bVbUo9Df/EHdtWld6iYpupSbzrLluvcoqFS48eNv9KBSXy2T6iwq/PZ0B2mV8il06DMWLvzQ7xvpbl81mNL0VBdS0+vVq9itq/4+wGhew3XblOVNlGrZmntfa8p6TrZvJPt+qtRd/S5r/aUaT5feu3Tu7IO6btms9a0+jLXdVOKo4L5kyTJ/gwjNs4q1VUKpk5P4babXCpUqmVQJvuZP01Ip53A3LW0/1YVX/Xh9piTOn4KrArluNqF12M39q+mG3w+tg3XrN/r3Ji7H0KGD0pq/8EYqJb17+c/VyVlD6gc35IYaur10svEU5rsV5Ltw38mvYwV39aihfSavSxe//CXuc1RFQutP3wPdCTF+H1APJdqv1QuJ7sqoG4ike3dI4JNEiTBQDx081YBFqUpBQGE78RFeGldJzvsLFvmDWZcunfxBSq32Vd9x4aIP/TiS7njngg66Hy5e5kOMDvaqL6gu1RQQ4ht2JdOU5VDp4ocfLvOBSwdcXcJWyaXqT86ZO8+fzDRV+BlaNgUh/xltWvt64WpApc9oyPZNnJ6qOagR5oH9sZLlujT38n4a97V0adusXr3Wlzxrn9Q8a7upwVu43dS9n8KouqRT6WziNuvshqkrNtHlf4U2hbXefUr8elDYV31dBcO6aB3pvQp/mo8e7vuhgFff96Mh8ydhI0F113euaX2qNxNVeVGoVrUIrTP9Nmhf0XLrBEil4x+5gKv9X/Mef5VB6zFsRKrvQ2KDUuB81Wrc+CmpKzgB5zE11FEYUYt2HZQAIGpUit3HnVR9sHBxVSn7J0W/ySrJVx179bIBfBpQIgwAAJpEJcadu3Ty1Uy2bq19oxDgfEUQxqdaq1axPit1Zy5dbgYAnDuq73zDDVfbxRPH+5udqFFpc1RrAs4VgjA+1dTQS/2c9u1TUm9/ngCA5qWeIlQHWvXdt23fUXWHTuDTgjrCAAAAiCRKhAEAABBJBGEAAABEEkEYAAAAkUQQBgAAQCQRhAEAABBJBGEAAABEEkEYAAAAkUQQBgAAQCQRhAEAABBJ3FkOQNoKC7vbpEsv8s/nzf/ASkt328iRw234sCGWkZlwXn32rJ0+c8b27ztgy5evstLde4I/JDdt2vX+Vq2pHD58xGbOfDV4lZ6JE8dZ3769/e1fz5w+bUuWLrcePQqtqEd3N7+ZduLECXvvvYW2c2dp8I66DR0yyAYPvsDa57S3Vu71yZOnbPOWrbZs2XI7ffpMbKQEl15ykRX3KrJFi5bYpk1b/LBwPWa3z/avkyndtdveeHOOf96vX28b5tax1o8+t7z8tG3a/LEtXfpRys9NJd1luOqqy/26SqT1+MHCxVXLEq9PnxK7aMJYO3HyZK1tle4yaLwLRwyz3A651qpVKzvj9qHt23fahx8utePHT/hx0tlXPv54W439csOGTfb++4v8cwAIUSIMoFmcdgHp4MFDVY+jR8sso1WGFbrQOWnyRB9w6nLEhZf494ePU6dO+VB9/PjxYMz09HCfW1xc5N+7bdsOH/batWvnQmiBD14fu9cfb9lmZWXHgnfU7cILh9mo0SOsvQuvBw8c8kGrsrLSBg8aYBPGjw3GqtamTWu75OIJPhxmuEAXT+tKYS1xWQ8dPOyD5lk3z8eOxZa3Z88eNnr0hdaxQwfbu2efXxb9fVCKz61LQ5ahffv2VlFRYYcPHa45j26+T50qD8aqpmA6fPgQy2qbFQyplu4yaF2NHzfGcnNzYvPntlG5+6w+vXvZJZdMCMZKb185cOCgbXZBe9++/cG7AKC2zKKefR8MngNAnXJzc62kpNg/3+rCjEKkgmVBQTcf3P74x9ds3bqN/rFm7XrbuGmz5eV1ti6dO1kHF4JKS/ckDVGyxYWy8L3hw6yVFfUotCNHj/rSPB900qR5KunV044dP2Gvvz7blyp2715g3QsKbP/+A/b2nHm+JDjV/MRTqB0zZqRluyC9avVae+fd9+zjrdv9+zXN/Pw8X1p5yIVG0TpSCO7Zs9BaZWT4sLljxy4f1kQl0SpRTVzenJz2br7zbc/uvfbe+x/4940bO8q6ds3zpadz3DxrPR0tK/PrPSe3vVuWg1WhuS4NWQadRPTtW2InT5y0V19709asWV81jypZPeq2R6Lx40f7dXvW/VdeXm5r124I/mJpL4NKqgu65ft968035/j527t3vxUVFVpuTq7f33QCkc6+skeBe/sO69atq9sHu/hgrH0AAOJRIgygxShYLVmy3IXR49axYwfr5YJpulTCOHTIQP9cQUcBKJSf39WuvuoK+9KdM+yuu273/15//VVW6AKdXHzxeLv00ousdZs2fjoa5/YvfN6XiOpSuUqpNUzjydixI23GjGn25S9/wQ//8pdus1tuuaGqFLtr164+QCrAbnXhLKR52rVrt6960b17t2Co2ahRI/wJwJGjZWmXSCo8DxjQ1065EKmgGlYXUPWJk+4EQEE6pNBYcabCRb9WluGCdkjze/NN1/n513J88YvTberUyX4dNGQZctq3d8G5jd9+6VS9GO2Wt6RXse3YudNOnax9spLuMqgqRHxpuGj9nXHjZWS0sszMzGBoTXXtKwBQF4IwgBalILNv734fYhRYRHVkZ0yfZl+841YX3vr4YYmGDRvs64nu3rPXhZvq0kW997LJF/vQdujQEV+yqn+75nWxSydd5C/D+9LAbdutsqKiqvR1r5sP1bs9W1npL61rmMYbN26UDR480Ffj2L5th78cX+aCWEf32ar/rNAdqjxb6as1JFLFhw65ubEXjsZRqeUbb7xtZ9IIkjJo4ABr27atD6nxgfGVV96wp59+0VdjEC3fmDEX+uoNhw4f9vW0ZeDA/jZ+/Bi3jjvYwYOHq6oV9Czq4UtrQ+ksg9a7qnOoAcltM26xu9wJgk42dPIRvz5E89Ovfx9fErtp08fB0JrSXQZVh1B1DJVGDxjQz/9d9bw75ObY0bJjKU8qUu0rAFAfgjCAFqfSQNXdVEljOhSU9FBViI0bNwdDYy5wASk7O9vWrttoL78yy+bP/8D/q6oY7dq2s359+/j3bN26w1ctUKMsjTN79ju2Z+8+zYYv6dQwjdetW74Pq0uWfmRz5s63d95934+r0tx2LpiqJFt1TtXwT/VmVY81pOoG3VwwVPWHeK+++qa966ajz0mH6srmd+tqZe4z46sUJFIjsalTL/MnA/sPHPQN8EJho0CtB60PLcebb831dbU7d+rklyPdZdBJgBoTdi/It8NHYg3P1KhOVRkUTMMTGr1XJwutM1vbihWr/bquT13LoHnXFQSVEKu0fro7Wbrggv528NBhW7DgT3bkSO0qGXXtKwBQH4IwgBaneriVldUd1KgE8JlnZ9rjTzznS2YTqZGbSkf37TtQ4zK+gpeqHKhUU6WFqv4QPtTAyqVt6+L+3hAKrU8+9bytX78pGGI+cB3X5flWrSyrTRv/eqsLgyo1HTF8iF1zzRRfKj3t5uutU+eOVllRGXtjIynIqcR8567SlJf1u3Tp7EtEVdKrcJvfNc8mu3lQKFV9aC2/qiVs315dmqxpvfDiK35dq6Q03WXIcutevTWsWrXWZs1624dq1RXW9lB9b9XlFTV00+dr2lvcfNWnrmUQlWorWLdxgX737j1+PG0Hlfb7xnYuzCdKta8AQDoIwgBaXHZ2O1/HMx0KOyot1CXynTurQ52onqvqrqrkU3VqVa0ifPTqVexLMRWWFQwbQu8Ju/7S5f/p02+27oUFvrpE23Zt/Tjqem3ZshW+Dm93NcRzn69uwtasXueDeWMpBKshmUo046tEJFJDO3X1plD68suv+0ZkYShVI7s2rdtY+enTVdUMkkl3GdRQ7fHHn/Xjh1S6raCuExoFWlUnKeld7Ku9rFi5OhirbnUtg7aBSn9bt86sEcBn/vFV3/WeqsKo+ki8uvYVAEgHQRhAi1MjLUmndwP1WKDS3mNlx5KWFssJF8reeGOO/e53T9Z6PPvsH23Pnr3BmPUbeeEwm37rNF8yqRJJVVFQsPIlwglWrFxjzzwz0373+6fs93942td9VYO8zIwMH2QbQwEvKyvLd51WVxCOpwZsCocKpeqSTI3MEnpoSyndZVA4T6RtosCs+e1VXORPSNTw8I47pvvGeVdffYVvGKcSXv/anVSkkrgM6rnCb/fjx21j3HbXeOrZQtVcOrvQHC+dfQUA6kIQBtCi1LhK1RXOuHC5/8CBYGhqKm1snZnpL3Un9ligurpnKs5Ym6w21jm4nN4Umrf+A/r6EPnRRyvtiSef8yWhL7zwih0/UbN+7w3XX21f+MLnrHfvXsGQmDw3v6p3fDhJ/dV0qGsvtUpT/eVEKtn+3OdutFs/f1OtRmqqSqH5Vndl6lZMpcGqxqES0ni6Mcbtt3/el+Cmswx6vxoyqrcJ3w9znE4uiCowazuodFjhM/6husTqOi1soKhx0l2GxqhrXwGAdBCEAbQYldaNHj3CN5JTfVWFo/qov+GKykrfSCuR6uru33fQh59eJT395fSQ6pCqZ4Nrr50aDKmfLq23zcryl/1XrVpTFaYUFDt0qO4FQsrKyvy4ajAWUglyXtcuduLkibRLc+Np/rVuVB837IM4nkq2T5ef9qWsffpUh1eVuKo0VPFR/eNqPIVhVeMoLu4RG8lRtQuVoqqbMk0/nWVQ1Qr18at6t71Lan5mz6JC372Z+oNeuXKNb3AY/1DXZfqssIGixkl3GVQnWNshp32O9e/fNzaSo3WkfoQVwNUzRby69hUASAc31ACQtrpuqKG6napnO3DgAP/QrXzVb28HFzZVuqpb5KqbM1Gp43XXXmkjRw7z4Se80YRCj96XmZHpb76QrOGYqi2o/m6Xzp3956mUUd1n6eYZKnVevXqdv0GDSguLXRBUuA17YgjnVVU0FMpVIqmwqNBbXNzT33xhyJCBNnjQBb7BlqikViFNvSr0cPOtG0+oOkPfPr19DxaaxnoXAFOF/P79+vgTAoXMcDlDmk6fviU+PKqxnkpSE6nEVOPpRhMKjuoObcTwob5nh92799rChR/6agOZmRnBeN38jSUUWrUsupueGpGtXrMu7WXQtLSeurqAXOTWj6Y3YsRQ372aPlPbUp+ZKNw/FE7je79IZxm0nbTOC7rn+94qVBqt7aV9SI3q1HPE4sXLqqpvpLOviPqu5oYaAFKhRBhAs1AjNoXP8KFwqRsh7HDhY+7c99IqMQ0bwynsprrjm6Yzf94Htm//AR8w1W2YehVQ378ffrjMl0qmSz0YqPGYejBQzwn93LQUmnbs3OXrqbbKaOXrr4p6RfjQBTGFaIVJlVKqOzK9P75RWUOoGziFP19txC1PMloeLZc+V+FUpdWtXQjU7YPnv/dBVSm2xlu0aLEvNVeg13hq7LfGBeD33l/ox0l3GcLP1ImOTjT8Z7r5VD/Bc+bOa3A1hHSXQTcS+dOflvrxVEdZ21YNAXfsLPXdp8WH3XT2FQCoT6tx46c0rnIWAADnOfVHrJtz6NbQuvUyAMSjRBgAAACRRBAGAHzmqG7wJRdPqNXlGgDEIwgDAD5zVNdbdYwTu2wDgHjUEQYAAEAkUSIMAACASCIIAwAAIJIIwgAAAIgkgjAAAAAiiSAMAACASCIIAwAAIJIIwgAAAIgkgjAAAAAiiSAMAACASCIIAwAAIJIIwgAAAIgkgjAAAAAiiSAMAACASCIIAwAAIJIIwgAAAIgkgjAAAAAiiSAMAACASCIIAwAAIJIIwgAAAIgkgjAAAAAiiSAMAACASCIIAwAAIJIIwgAAAIgkgjAAAAAiiSAMAACASCIIAwAAIJIIwgAAAIgkgjAAAAAiiSAMAACASCIIAwAAIJIIwgAAAIgkgjAAAAAiiSAMAACASCIIAwAAIJIIwgAAAIgkgjAAAAAiiSAMAACASCIIAwAAIJIIwgAAAIgkgjAAAAAiiSAMAACASCIIAwAAIJIIwgAAAIgkgjAAAAAiiSAMAACASCIIAwAAIJIIwgAAAIgkgjAAAAAiiSAMAACASCIIAwAAIJIIwgAAAIgkgjAAAAAiiSAMAACASCIIAwAAIJIIwgAAAIgkgjAAAAAiiSAMAACASCIIAwAAIJIIwgAAAIgkgjAAAAAiiSAMAACASCIIAwAAIJIIwgAAAIgkgjAAAAAiiSAMAACASCIIAwAAIJIIwgAAAIgkgjAAAAAiiSAMAACASCIIAwAAIJIIwgAAAIgkgjAAAAAiiSAMAACASCIIAwAAIJIIwgAAAIgkgjAAAAAiiSAMAACASCIIAwAAIJIIwgAAAIgkgjAAAAAiiSAMAACASCIIAwAAIJIIwgAAAIgkgjAAAAAiiSAMAACASCIIAwAAIJIIwgAAAIgkgjAAAAAiiSAMAACASCIIAwAAIJIIwgAAAIgkgjAAAAAiyOz/B41RvYZkDHg1AAAAAElFTkSuQmCC;" vertex="1" parent="1">
          <mxGeometry x="83" y="40" width="661.88" height="450" as="geometry" />
        </mxCell>
        <mxCell id="4a1D77Ex5ZYP_HulUG9D-2" value="&lt;font style=&quot;background-color: rgb(255, 255, 255);&quot;&gt;大飞&lt;/font&gt;" style="text;html=1;strokeColor=none;fillColor=none;align=center;verticalAlign=middle;whiteSpace=wrap;rounded=0;" vertex="1" parent="1">
          <mxGeometry x="100" y="555" width="60" height="30" as="geometry" />
        </mxCell>
      </root>
    </mxGraphModel>
  </diagram>
</mxfile>
